<svg width="24" height="24" viewBox="0 0 24 24" fill="none" xmlns="http://www.w3.org/2000/svg">
<path d="M3.07133 8.18676C2.30838 8.79321 1.81931 10.0746 1.98559 11.0332L3.28652 18.8192C3.52128 20.2081 4.85155 21.333 6.26007 21.333H17.2153C18.614 21.333 19.9541 20.1983 20.1888 18.8192L21.4897 11.0332C21.6463 10.0746 21.1572 8.79321 20.404 8.18676L13.6255 2.76788C12.5789 1.92667 10.8867 1.92666 9.84986 2.75809L3.07133 8.18676Z" stroke="currentColor" stroke-width="1.46721" stroke-linecap="round" stroke-linejoin="round"/>
<path fill-rule="evenodd" clip-rule="evenodd" d="M11.7378 15.1612C10.3873 15.1612 9.29248 14.0664 9.29248 12.7159C9.29248 11.3653 10.3873 10.2705 11.7378 10.2705C13.0884 10.2705 14.1832 11.3653 14.1832 12.7159C14.1832 14.0664 13.0884 15.1612 11.7378 15.1612Z" stroke="currentColor" stroke-width="1.46721" stroke-linecap="round" stroke-linejoin="round"/>
</svg>
